<svg t="1618358645792" class="icon" viewBox="0 0 1024 1024" version="1.1" xmlns="http://www.w3.org/2000/svg" p-id="1127" width="16" height="16"><path d="M221.354667 786.204444c2.275556 0 4.551111-0.256 6.855111-0.568888l192.227555-33.735112a11.207111 11.207111 0 0 0 6.058667-3.214222L910.961778 264.248889a11.377778 11.377778 0 0 0 0-16.128l-189.952-190.065778a11.320889 11.320889 0 0 0-8.106667-3.299555 11.292444 11.292444 0 0 0-8.106667 3.299555L220.330667 542.520889a11.605333 11.605333 0 0 0-3.214223 6.058667l-33.706666 192.227555a38.286222 38.286222 0 0 0 10.752 34.048c7.537778 7.338667 17.038222 11.320889 27.192889 11.320889z m77.027555-199.338666L712.903111 172.458667l83.768889 83.768889-414.520889 414.435555-101.603555 17.92 17.834666-101.717333z m634.168889 295.310222H91.420444c-20.224 0-36.579556 16.355556-36.579555 36.579556v41.130666c0 5.034667 4.124444 9.159111 9.159111 9.159111h896a9.159111 9.159111 0 0 0 9.130667-9.159111V918.755556c0-20.224-16.355556-36.579556-36.579556-36.579556z" p-id="1128"></path></svg>